<svg xmlns="http://www.w3.org/2000/svg" xmlns:xlink="http://www.w3.org/1999/xlink" width="200" zoomAndPan="magnify" viewBox="0 0 150 149.999998" height="200" preserveAspectRatio="xMidYMid meet" version="1.0"><defs><g/><clipPath id="e2519ad765"><path d="M 15 15 L 135 15 L 135 135 L 15 135 Z M 15 15 " clip-rule="nonzero"/></clipPath><clipPath id="a202bb6708"><path d="M 75 15 C 41.863281 15 15 41.863281 15 75 C 15 108.136719 41.863281 135 75 135 C 108.136719 135 135 108.136719 135 75 C 135 41.863281 108.136719 15 75 15 Z M 75 15 " clip-rule="nonzero"/></clipPath><clipPath id="ef76beccb7"><path d="M 0 0 L 120 0 L 120 120 L 0 120 Z M 0 0 " clip-rule="nonzero"/></clipPath><clipPath id="d7a9ece083"><path d="M 60 0 C 26.863281 0 0 26.863281 0 60 C 0 93.136719 26.863281 120 60 120 C 93.136719 120 120 93.136719 120 60 C 120 26.863281 93.136719 0 60 0 Z M 60 0 " clip-rule="nonzero"/></clipPath><clipPath id="3a92ef5d1e"><rect x="0" width="120" y="0" height="120"/></clipPath><clipPath id="6dfec8a695"><rect x="0" width="67" y="0" height="80"/></clipPath></defs><g clip-path="url(#e2519ad765)"><g clip-path="url(#a202bb6708)"><g transform="matrix(1, 0, 0, 1, 15, 15)"><g clip-path="url(#3a92ef5d1e)"><g clip-path="url(#ef76beccb7)"><g clip-path="url(#d7a9ece083)"><rect x="-48" width="216" fill="#000000" height="215.999996" y="-47.999999" fill-opacity="1"/></g></g></g></g></g></g><g transform="matrix(1, 0, 0, 1, 41, 39)"><g clip-path="url(#6dfec8a695)"><g fill="#ffffff" fill-opacity="1"><g transform="translate(0.16109, 55.201354)"><g><path d="M 22.34375 -51.109375 L 22.34375 10.21875 L 4.09375 10.21875 L 4.09375 -51.109375 Z M 22.34375 -51.109375 "/></g></g></g><g fill="#ffffff" fill-opacity="1"><g transform="translate(13.652679, 55.201354)"><g><path d="M 2.71875 -0.8125 L 26.171875 -34.34375 L 4.421875 -34.34375 L 4.421875 -51.109375 L 51.03125 -51.109375 L 51.03125 -39.59375 L 28.140625 -6.546875 L 51.78125 -6.546875 L 51.78125 10.21875 L 2.71875 10.21875 Z M 2.71875 -0.8125 "/></g></g></g></g></g></svg>